<?xml version="1.0" standalone="no"?>
<!DOCTYPE svg PUBLIC "-//W3C//DTD SVG 20010904//EN"
 "http://www.w3.org/TR/2001/REC-SVG-20010904/DTD/svg10.dtd">
<svg version="1.0" xmlns="http://www.w3.org/2000/svg"
 width="576.000000pt" height="512.000000pt" viewBox="0 0 576.000000 512.000000"
 preserveAspectRatio="xMidYMid meet">

<g transform="translate(0.000000,512.000000) scale(0.100000,-0.100000)" stroke="none">
<path d="M2803 4795 c-168 -37 -283 -154 -319 -325 -12 -61 -12 -79 0 -140 19
-89 58 -162 119 -222 26 -26 47 -54 47 -62 0 -9 -128 -273 -285 -587 -312
-622 -326 -645 -428 -690 -70 -30 -182 -31 -248 -2 -58 26 -949 738 -949 758
0 9 9 34 21 57 11 22 27 71 35 109 12 60 12 78 0 139 -37 174 -152 289 -326
326 -61 12 -79 12 -140 0 -136 -29 -232 -101 -291 -222 -32 -65 -34 -74 -34
-174 0 -98 2 -110 32 -171 18 -35 47 -81 65 -102 48 -54 139 -104 224 -123 72
-15 74 -17 84 -52 6 -21 112 -595 235 -1278 124 -683 232 -1260 240 -1283 31
-90 81 -168 155 -242 98 -98 219 -161 354 -184 133 -23 2839 -23 2972 0 232
39 432 207 510 427 8 23 118 612 245 1308 132 726 235 1271 243 1278 7 7 41
20 75 27 134 32 229 106 284 223 30 62 32 75 32 172 0 97 -2 110 -32 172 -57
120 -155 195 -294 224 -60 12 -78 12 -139 0 -173 -36 -292 -156 -324 -326 -16
-82 -3 -174 35 -252 12 -25 19 -53 16 -62 -3 -8 -208 -177 -455 -374 -314
-251 -463 -365 -498 -378 -74 -28 -178 -24 -247 10 -101 49 -113 68 -427 696
l-290 581 52 52 c66 66 105 137 124 227 12 61 12 79 0 139 -25 118 -81 205
-169 262 -99 64 -204 86 -304 64z m105 -1452 c11 -16 98 -185 195 -378 189
-375 223 -428 340 -525 73 -60 215 -133 307 -157 46 -13 104 -18 200 -18 230
0 351 50 589 240 79 63 145 115 147 115 1 0 9 3 18 6 13 5 16 -1 16 -29 0 -40
-285 -1623 -301 -1675 -14 -44 -56 -92 -96 -108 -48 -21 -2838 -21 -2886 0
-40 16 -82 64 -96 108 -16 51 -301 1635 -301 1673 0 19 3 35 6 35 14 0 58 -30
164 -115 202 -163 313 -220 473 -245 92 -15 245 -8 332 14 86 23 230 97 302
156 114 93 151 150 340 525 174 346 206 405 223 405 5 0 17 -12 28 -27z" fill="#aaaaaa"/>
<path d="M2689 3038 c-230 -462 -274 -524 -438 -637 -145 -99 -281 -136 -478
-129 -212 8 -313 52 -553 244 -74 59 -140 111 -146 116 -19 14 -44 -2 -44 -28
0 -25 296 -1663 306 -1698 11 -35 75 -95 112 -106 51 -14 2813 -14 2864 0 37
11 101 71 112 106 10 35 306 1673 306 1698 0 26 -25 42 -44 28 -6 -5 -72 -57
-146 -116 -237 -190 -341 -236 -547 -244 -199 -7 -340 30 -484 129 -164 113
-208 175 -438 637 -139 278 -175 342 -191 342 -16 0 -52 -64 -191 -342z" fill="#black"/>
</g>
</svg>
